<svg width="34" height="31" viewBox="0 0 34 31" fill="none" xmlns="http://www.w3.org/2000/svg">
<g clip-path="url(#clip0_4484_14454)">
<path d="M34 17.2269C33.9112 17.6685 33.8416 18.1146 33.7292 18.5505C33.3796 19.9421 32.6606 21.2135 31.6483 22.2303C31.563 22.3132 31.4962 22.4132 31.4525 22.5238C31.4087 22.6344 31.3889 22.7531 31.3944 22.8719C31.3888 23.4674 31.418 24.0775 31.2989 24.655C30.9618 26.2606 29.6337 27.3337 27.9281 27.3517C25.3506 27.3842 22.7708 27.3629 20.1921 27.3595C19.7978 27.3595 19.5831 27.1674 19.5865 26.8539C19.5899 26.5404 19.7989 26.3674 20.2045 26.3674C22.7281 26.3674 25.2517 26.3674 27.7753 26.3674C29.0427 26.3674 30 25.6932 30.2944 24.5696C30.3955 24.1842 30.3944 23.773 30.4494 23.2977C27.264 25.2078 24.1663 25.2 21.0404 23.2887C20.7393 23.5944 20.4157 23.9123 20.109 24.2438C20.0571 24.3231 20.0355 24.4184 20.0483 24.5123C20.0617 24.6838 20.0368 24.8562 19.9754 25.0169C19.914 25.1776 19.8176 25.3227 19.6933 25.4415C18.3449 26.7899 17.0112 28.1438 15.6483 29.4753C15.4568 29.6697 15.2285 29.8241 14.9767 29.9294C14.7249 30.0347 14.4546 30.0889 14.1817 30.0888C13.9087 30.0886 13.6386 30.0342 13.3869 29.9286C13.1352 29.823 12.907 29.6684 12.7157 29.4738C12.5243 29.2792 12.3736 29.0484 12.2723 28.795C12.171 28.5415 12.1212 28.2704 12.1257 27.9975C12.1302 27.7246 12.1889 27.4554 12.2985 27.2054C12.4081 26.9554 12.5664 26.7298 12.764 26.5415C14.0933 25.1932 15.4382 23.864 16.7753 22.5247C16.8945 22.4008 17.0399 22.3051 17.2009 22.2447C17.3619 22.1842 17.5343 22.1605 17.7056 22.1753C17.82 22.1772 17.9311 22.1372 18.018 22.0629C18.327 21.7786 18.6191 21.4764 18.9404 21.164C17.993 19.7806 17.484 18.1441 17.4798 16.4674H9.16517C9.16517 17.055 9.16517 17.6382 9.16517 18.2202C9.17181 18.6969 8.99618 19.1582 8.67413 19.5099C8.35209 19.8615 7.90795 20.0768 7.43245 20.112C6.95695 20.1471 6.48597 19.9994 6.11574 19.6989C5.74551 19.3985 5.50396 18.968 5.44045 18.4955C5.40449 18.1449 5.41798 17.7887 5.41461 17.4348C5.41461 17.1146 5.41461 16.7955 5.41461 16.4483C3.58764 16.2528 2.13258 15.4303 1.01798 13.909C1.00787 14.0584 0.996629 14.1505 0.996629 14.246C0.996629 17.4221 0.996629 20.5985 0.996629 23.7753C0.996629 25.3179 2.02921 26.3595 3.57303 26.3719C5.79775 26.382 8.02247 26.3719 10.2472 26.3719H10.5124C10.9303 26.3775 11.1596 26.5584 11.1528 26.8741C11.1461 27.1899 10.9169 27.3663 10.4955 27.3663C8.18202 27.3663 5.86854 27.3786 3.55618 27.3663C1.7382 27.355 0.459551 26.2887 0.0539326 24.4887C0.0393231 24.4356 0.0213084 24.3834 0 24.3326L0 8.06289C0.0146067 8.04604 0.0370787 8.03256 0.041573 8.01346C0.534831 6.04267 1.75281 5.09211 3.77416 5.09211H9.50449C9.50449 4.52357 9.50449 3.99435 9.50449 3.46626C9.51573 1.48312 10.9258 0.0336801 12.8989 0.0112082C14.7697 -0.0112637 16.6393 0.0112082 18.5101 0.0112082C19.2127 0.000153479 19.9001 0.216529 20.4697 0.628062C21.436 1.32919 21.8876 2.29548 21.8955 3.47862C21.8955 4.00559 21.8955 4.53256 21.8955 5.09211H22.2933C24.0865 5.09211 25.8794 5.09211 27.6719 5.09211C27.9153 5.09305 28.1584 5.10806 28.4 5.13705C29.9045 5.31683 31.1685 6.5348 31.3393 8.03705C31.418 8.73705 31.3921 9.45053 31.3966 10.1573C31.393 10.2536 31.4101 10.3496 31.4467 10.4387C31.4834 10.5279 31.5387 10.6082 31.609 10.6741C32.6743 11.7334 33.4213 13.0701 33.7652 14.5326C33.8629 14.9382 33.9236 15.3528 34 15.7685V17.2269ZM30.3438 9.61233L30.4416 9.57638C30.4011 9.02806 30.4258 8.46626 30.309 7.93593C30.0517 6.77525 29.0483 6.08312 27.7303 6.08312H3.6618C3.5618 6.08312 3.46292 6.08312 3.36292 6.08986C1.98202 6.17975 1.01124 7.21346 0.996629 8.59435C0.996629 9.23705 0.996629 9.87862 0.996629 10.5202C0.970191 11.74 1.41255 12.9235 2.23258 13.8269C3.07079 14.7618 4.12022 15.2876 5.40899 15.4314C5.4 14.8696 5.44382 14.3438 5.79775 13.9033C5.96163 13.686 6.17149 13.5075 6.41234 13.3807C6.65319 13.2539 6.91908 13.1818 7.19101 13.1696C7.62614 13.1393 8.05756 13.2674 8.40562 13.5303C9.04157 14.0045 9.22584 14.6741 9.16966 15.4213C9.21753 15.4314 9.26592 15.4389 9.31461 15.4438C11.9809 15.4438 14.6483 15.4438 17.3146 15.4505C17.5506 15.4505 17.5753 15.3382 17.6022 15.1505C18.2921 10.5022 22.9955 7.33817 27.591 8.42806C28.5707 8.65925 29.5023 9.06005 30.3438 9.61233V9.61233ZM18.4865 16.4741C18.487 17.9093 18.9128 19.3121 19.7103 20.5053C20.5078 21.6984 21.6411 22.6284 22.967 23.1777C24.2929 23.7269 25.7518 23.8708 27.1595 23.5911C28.5671 23.3115 29.8602 22.6208 30.8754 21.6063C31.8906 20.5919 32.5823 19.2993 32.8631 17.8919C33.1439 16.4845 33.0011 15.0254 32.4529 13.6991C31.9047 12.3728 30.9756 11.2388 29.783 10.4404C28.5904 9.64197 27.188 9.21501 25.7528 9.21346C23.8268 9.21405 21.9798 9.97902 20.6174 11.3404C19.255 12.7017 18.4886 14.5481 18.4865 16.4741V16.4741ZM11.5607 5.06626C11.5607 4.54716 11.5607 4.05503 11.5607 3.55503C11.5607 2.56964 12.064 2.06514 13.0506 2.06514C14.8101 2.06514 16.5704 2.06514 18.3315 2.06514C19.3427 2.06514 19.8393 2.56514 19.8427 3.57076C19.8427 4.06514 19.8427 4.55952 19.8427 5.0584H20.8753C20.8753 4.38424 20.927 3.72357 20.8652 3.07975C20.8205 2.5191 20.5672 1.9956 20.1553 1.61263C19.7434 1.22965 19.2029 1.01505 18.6404 1.01121C16.6719 0.983493 14.703 0.983493 12.7337 1.01121C12.2005 1.01717 11.6874 1.2152 11.2885 1.56895C10.8895 1.92269 10.6315 2.40844 10.5618 2.93705C10.4753 3.63031 10.5449 4.34267 10.5449 5.07188L11.5607 5.06626ZM18.8427 5.06626C18.8427 4.54941 18.8427 4.06514 18.8427 3.57975C18.8427 3.12244 18.7798 3.05728 18.3292 3.05728H14.4438C13.9461 3.05728 13.4472 3.05728 12.9494 3.05728C12.7326 3.05728 12.5674 3.13256 12.5629 3.36851C12.5517 3.93031 12.5629 4.49211 12.5629 5.06739L18.8427 5.06626ZM16.2584 24.4786C15.3101 25.4213 14.3483 26.3629 13.4101 27.3269C13.2707 27.4969 13.1854 27.7047 13.1652 27.9236C13.1418 28.1394 13.1877 28.357 13.2962 28.5451C13.4046 28.7331 13.57 28.8818 13.7685 28.9696C13.9709 29.0629 14.1973 29.0905 14.4162 29.0486C14.635 29.0067 14.8352 28.8974 14.9888 28.7359C15.7753 27.9618 16.5506 27.1753 17.3348 26.3977C17.4809 26.2528 17.6472 26.1281 17.7843 26.009C17.2371 25.4685 16.7551 24.9854 16.2528 24.482L16.2584 24.4786ZM8.16854 16.6977C8.16854 16.0831 8.18989 15.4988 8.1618 14.9168C8.14288 14.7219 8.05594 14.5399 7.91624 14.4026C7.77653 14.2654 7.59298 14.1817 7.39775 14.1663C6.9764 14.1258 6.51798 14.3629 6.4809 14.7562C6.42022 15.3944 6.46404 16.0427 6.46404 16.6977H8.16854ZM6.45281 17.7303C6.34045 18.3404 6.45281 18.7415 6.80225 18.9741C6.94978 19.0742 7.12445 19.1265 7.30268 19.1241C7.48091 19.1217 7.6541 19.0646 7.79888 18.9606C8.23371 18.6415 8.1955 18.1932 8.14831 17.7303H6.45281ZM19.1236 24.6146C18.6326 24.1382 18.1775 23.6899 17.7112 23.255C17.6737 23.2346 17.6315 23.2239 17.5888 23.2239C17.546 23.2239 17.5039 23.2346 17.4663 23.255C17.3197 23.3865 17.1802 23.5257 17.0483 23.6719L18.509 25.1326L19.1236 24.6146ZM19.5865 22.0157L18.7416 22.8179L19.3966 23.5011C19.6865 23.2135 19.9652 22.9393 20.2247 22.6775L19.5865 22.0157Z" fill="black"/>
<path d="M25.7305 10.4943C22.1687 10.5033 19.38 13.5943 19.8069 17.1348C20.0901 19.4808 21.3642 21.1685 23.5687 22.028C25.7541 22.8797 27.8114 22.5089 29.6272 21.0112C30.6178 20.1928 31.3034 19.0641 31.5732 17.8078C31.644 17.5022 31.5103 17.246 31.2485 17.1707C30.9665 17.0876 30.7159 17.237 30.6159 17.5516C30.589 17.6348 30.571 17.7224 30.5474 17.8078C29.9406 20.0482 27.7204 21.6404 25.462 21.455C22.6013 21.2201 20.6305 18.964 20.7811 16.0943C20.9283 13.2595 23.7204 11.0381 26.5114 11.5505C28.6272 11.9415 29.9777 13.1988 30.5755 15.264C30.6991 15.6909 30.9193 15.8617 31.2496 15.7685C31.5463 15.6831 31.6474 15.4235 31.544 15.0067C31.218 13.7134 30.4685 12.5664 29.4149 11.7486C28.3613 10.9308 27.0643 10.4892 25.7305 10.4943V10.4943Z" fill="black"/>
<path d="M25.7311 10.4944C27.0638 10.4906 28.3596 10.9327 29.4121 11.7504C30.4645 12.5681 31.2132 13.7144 31.5389 15.0068C31.6423 15.4236 31.5389 15.6809 31.2445 15.7686C30.9198 15.8618 30.6996 15.691 30.5704 15.2641C29.9726 13.1989 28.6221 11.9416 26.5063 11.5562C23.712 11.0405 20.9198 13.2652 20.776 16.1C20.6266 18.9697 22.5962 21.2259 25.4569 21.4607C27.7153 21.6461 29.9356 20.054 30.5423 17.8135C30.5659 17.7281 30.5839 17.6405 30.6108 17.5573C30.7108 17.2427 30.9614 17.0933 31.2434 17.1764C31.5052 17.254 31.6389 17.5135 31.5681 17.8135C31.2996 19.0666 30.6173 20.1929 29.6311 21.0113C27.8153 22.509 25.758 22.8798 23.5726 22.0281C21.3681 21.1686 20.0895 19.4809 19.8108 17.1349C19.3839 13.5955 22.1726 10.5034 25.7311 10.4944Z" fill="black"/>
</g>
<defs>
<clipPath id="clip0_4484_14454">
<rect width="34" height="30.0697" fill="white"/>
</clipPath>
</defs>
</svg>