<svg width="34" height="29" viewBox="0 0 34 29" fill="none" xmlns="http://www.w3.org/2000/svg">
<g clip-path="url(#clip0_4484_14450)">
<path d="M33.9555 8.44646C33.422 6.36919 32.1047 5.36727 29.9185 5.36727H23.7208C23.7208 4.76801 23.7208 4.2102 23.7208 3.65358C23.7086 1.56328 22.1835 0.0355291 20.0519 0.011843C19.0336 0 18.0164 0 17.0005 0C15.9845 0 14.9674 0 13.9514 0.011843C11.8175 0.0355291 10.2923 1.56328 10.2778 3.64766C10.2778 4.20428 10.2778 4.76209 10.2778 5.36135H4.08004C1.89261 5.36135 0.576501 6.36919 0.0430108 8.44054C0.0430108 8.46067 0.013845 8.47489 -0.00195312 8.49265V25.6414C0.0208995 25.6934 0.0403816 25.7468 0.0563784 25.8013C0.49508 27.6962 1.87924 28.8224 3.84428 28.8343C6.01835 28.8473 18.601 28.8414 23.4984 28.8343C25.7162 28.8343 27.934 28.8437 30.1518 28.8343C32.1181 28.8224 33.501 27.6985 33.9397 25.8013C33.9557 25.7468 33.9752 25.6934 33.998 25.6414V8.49857C33.9859 8.48081 33.9616 8.4666 33.9555 8.44646ZM11.4237 3.09577C11.5005 2.53967 11.7801 2.02909 12.2115 1.65743C12.6428 1.28577 13.1971 1.07788 13.7728 1.0718C14.8487 1.05758 15.9246 1.05008 17.0005 1.04929C18.0764 1.0485 19.1523 1.05601 20.2282 1.0718C20.8037 1.07817 21.3576 1.28618 21.7887 1.65782C22.2198 2.02945 22.4993 2.53987 22.576 3.09577C22.6696 3.82649 22.5942 4.57734 22.5942 5.34595H21.5005C21.5005 4.7988 21.5005 4.28008 21.5005 3.75306C21.5005 2.71443 20.9573 2.18267 19.8891 2.18267H14.1155C13.0485 2.18267 12.5053 2.71443 12.5041 3.75306C12.5041 4.27534 12.5041 4.7988 12.5041 5.34595H11.4104C11.4067 4.57734 11.3314 3.82649 11.4237 3.09577ZM20.4165 5.34595H13.5844C13.5844 4.73722 13.5759 4.14625 13.5844 3.55528C13.5844 3.30658 13.7679 3.22605 14.0025 3.22723C14.5408 3.22723 15.0804 3.22723 15.6188 3.22723H18.3749C18.9145 3.22723 19.4528 3.22723 19.9912 3.22723C20.2257 3.22723 20.4056 3.30658 20.4104 3.55528C20.425 4.14507 20.4165 4.73722 20.4165 5.34358V5.34595ZM30.1384 27.7933C28.4809 27.8004 26.8245 27.7992 25.1669 27.7933H22.6283C17.4295 27.7933 5.86887 27.7933 3.86494 27.7933C2.1952 27.7862 1.07961 26.6824 1.0784 25.0563C1.0784 21.7079 1.0784 18.3599 1.0784 15.0122C1.0784 14.9151 1.09055 14.818 1.10149 14.657C2.307 16.2605 3.88074 17.1274 5.85672 17.3335C5.85672 17.6994 5.85672 18.0358 5.85672 18.3733C5.85672 18.7464 5.84578 19.1218 5.88467 19.4913C5.95337 19.9894 6.21461 20.4431 6.61504 20.7598C7.01547 21.0764 7.52486 21.2322 8.03915 21.1951C8.55343 21.1581 9.0338 20.9311 9.38211 20.5605C9.73042 20.1899 9.92038 19.7036 9.91319 19.2011C9.91319 18.5877 9.91319 17.973 9.91319 17.3536H24.0865C24.0865 17.973 24.0865 18.5877 24.0865 19.2011C24.0766 19.7054 24.2654 20.1942 24.6139 20.567C24.9625 20.9398 25.4443 21.1682 25.9605 21.2054C26.4766 21.2426 26.9877 21.0856 27.3887 20.7668C27.7897 20.4479 28.05 19.9915 28.1163 19.4913C28.154 19.1218 28.1394 18.7464 28.1442 18.3733C28.1442 18.0358 28.1442 17.6994 28.1442 17.3335C30.1202 17.1274 31.694 16.2605 32.8995 14.657C32.9104 14.8145 32.9226 14.9116 32.9226 15.0122C32.9226 18.3599 32.9226 21.7079 32.9226 25.0563C32.9213 26.68 31.807 27.7838 30.1384 27.7909V27.7933ZM6.9796 18.6883H8.8134C8.86444 19.1763 8.90576 19.6488 8.43546 19.9851C8.27888 20.0947 8.09156 20.1549 7.8988 20.1574C7.70603 20.16 7.51711 20.1048 7.35754 19.9994C6.98203 19.753 6.85686 19.3314 6.9796 18.6883ZM7.00391 15.557C7.04401 15.1425 7.53983 14.8926 7.99554 14.9353C8.20669 14.9516 8.40522 15.0398 8.55632 15.1844C8.70742 15.3291 8.80144 15.5209 8.82191 15.7264C8.85229 16.3399 8.8292 16.9557 8.8292 17.6035H6.98568C6.98568 16.9131 6.93829 16.225 7.00391 15.557ZM25.1876 18.6883H27.0214C27.1429 19.3314 27.0214 19.7542 26.6434 19.9994C26.4841 20.1048 26.2954 20.1601 26.1028 20.1575C25.9102 20.155 25.723 20.0948 25.5667 19.9851C25.0952 19.6488 25.1365 19.1763 25.1876 18.6883ZM25.179 15.7276C25.1995 15.5221 25.2935 15.3302 25.4446 15.1856C25.5957 15.0409 25.7943 14.9527 26.0054 14.9365C26.4611 14.8938 26.9569 15.1437 26.997 15.5582C27.0627 16.2309 27.0153 16.9142 27.0153 17.6047H25.1718C25.1718 16.9557 25.1487 16.3434 25.179 15.7264V15.7276ZM32.9238 11.0898C32.9405 12.3793 32.4586 13.6276 31.5739 14.5866C30.6892 15.5456 29.4666 16.1448 28.1491 16.2652C28.1588 15.6731 28.1114 15.12 27.7286 14.6558C27.5516 14.427 27.325 14.2391 27.065 14.1054C26.805 13.9717 26.5178 13.8956 26.2242 13.8824C25.7545 13.8508 25.2889 13.9854 24.9129 14.2614C24.2251 14.7612 24.0258 15.467 24.0865 16.2546C24.0352 16.2651 23.9832 16.273 23.931 16.2783C21.6204 16.2783 19.3115 16.2783 17.0041 16.2783C14.6968 16.2783 12.3878 16.2783 10.0773 16.2783C10.0246 16.2732 9.97226 16.2652 9.92049 16.2546C9.98125 15.467 9.78195 14.7612 9.09412 14.2614C8.71703 13.9837 8.24946 13.8487 7.77802 13.8812C7.48432 13.8944 7.19722 13.9705 6.93717 14.1042C6.67713 14.2379 6.45054 14.4258 6.27355 14.6546C5.89075 15.1188 5.84335 15.6731 5.85308 16.2641C4.5278 16.1513 3.29776 15.5462 2.41759 14.5741C1.53067 13.6218 1.05223 12.3744 1.08083 11.0886C1.08083 10.4124 1.08083 9.73499 1.08083 9.05875C1.09419 7.60324 2.14416 6.51368 3.63769 6.41893C3.74585 6.41183 3.85279 6.41183 3.96095 6.41183H30.04C30.1482 6.41183 30.2563 6.41183 30.3633 6.41893C31.8568 6.51841 32.9153 7.60324 32.9226 9.05875C32.9335 9.73499 32.9213 10.4124 32.9238 11.0886V11.0898Z" fill="black"/>
</g>
<defs>
<clipPath id="clip0_4484_14450">
<rect width="34" height="28.8485" fill="white"/>
</clipPath>
</defs>
</svg>