<svg width="34" height="35" viewBox="0 0 34 35" fill="none" xmlns="http://www.w3.org/2000/svg">
<g clip-path="url(#clip0_4484_14461)">
<path d="M26.7194 0C27.4836 0.172134 28.0302 0.661786 28.5641 1.20261C30.0691 2.73321 31.5865 4.25102 33.1163 5.75603C33.4042 6.02907 33.6317 6.35947 33.7839 6.72589C33.9362 7.09231 34.0099 7.4866 34.0003 7.88328C33.9925 15.7984 33.9906 23.7127 33.9944 31.6262C33.9944 33.3196 32.9698 34.3419 31.2833 34.3419H9.38389C8.09638 34.3419 7.05194 33.5953 6.84724 32.3961C6.72279 31.668 6.78211 30.9051 6.79025 30.1584C6.79025 29.8862 7.0124 29.7432 7.27409 29.7467C7.33652 29.7421 7.39922 29.7506 7.45818 29.7717C7.51715 29.7927 7.5711 29.8257 7.61661 29.8687C7.66211 29.9117 7.69817 29.9637 7.7225 30.0214C7.74683 30.079 7.75889 30.1412 7.75792 30.2037C7.77886 30.6829 7.76955 31.1644 7.77188 31.6448C7.77188 32.7613 8.35342 33.3359 9.46764 33.3359H20.896C20.7796 33.2068 20.7029 33.1184 20.6215 33.037C19.3654 31.7785 18.1127 30.5178 16.8485 29.2686C16.4914 28.9197 16.2774 28.5324 16.3832 28.0137C16.389 27.9717 16.3864 27.9289 16.3754 27.888C16.3644 27.847 16.3453 27.8087 16.3193 27.7753C16.039 27.4729 15.7459 27.1833 15.4621 26.8936C13.383 28.3694 10.812 28.9801 8.29136 28.5969C5.77069 28.2137 3.49735 26.8666 1.95072 24.8397C-0.941834 21.0225 -0.589424 15.5351 2.82069 12.0808C6.23081 8.62648 11.7205 8.24267 15.5958 11.141C17.6382 12.6811 18.9987 14.9575 19.3878 17.4857C19.7768 20.0138 19.1637 22.594 17.6789 24.6768C17.9673 24.9571 18.2604 25.2502 18.5605 25.5259C18.6378 25.5794 18.7331 25.6003 18.8257 25.584C19.0236 25.5431 19.2287 25.5538 19.4214 25.6149C19.614 25.6759 19.7878 25.7855 19.926 25.933C21.4461 27.4449 22.9697 28.9569 24.4759 30.4887C25.1819 31.2051 25.3168 32.1844 24.8864 33.0928C24.855 33.1603 24.8213 33.2277 24.7701 33.3254C27.0963 33.3254 29.3852 33.344 31.673 33.3138C32.3708 33.3045 32.9023 32.695 32.9698 31.9949C32.9849 31.8402 32.9849 31.6832 32.9849 31.5296C32.9849 23.6828 32.9849 15.8356 32.9849 7.98796V7.36106H32.1614C30.9542 7.36106 29.7469 7.36106 28.5396 7.36106C27.3498 7.36106 26.6427 6.64927 26.6404 5.46177C26.6404 4.13122 26.6404 2.80106 26.6404 1.47128C26.6404 1.00605 26.6404 1.00605 26.16 1.00605H9.46298C8.35109 1.00605 7.77421 1.58759 7.77304 2.70065C7.77304 4.24443 7.77304 5.78704 7.77304 7.3285C7.77773 7.45157 7.77307 7.57482 7.75909 7.69719C7.75595 7.75927 7.74019 7.82006 7.71277 7.87583C7.68535 7.93161 7.64683 7.98121 7.59959 8.0216C7.55234 8.06199 7.49735 8.09232 7.43799 8.11073C7.37862 8.12914 7.31612 8.13525 7.25431 8.12869C7.195 8.13182 7.13565 8.12318 7.0797 8.10327C7.02374 8.08335 6.97227 8.05256 6.92827 8.01267C6.88427 7.97277 6.84859 7.92456 6.82331 7.87082C6.79802 7.81707 6.78363 7.75885 6.78095 7.69952C6.76797 7.57591 6.7633 7.45157 6.76699 7.32734C6.76699 5.88629 6.80886 4.44176 6.7542 3.00188C6.69837 1.52827 7.29386 0.401259 8.8768 0H26.7194ZM18.4931 18.9673C18.5076 17.8099 18.2924 16.6612 17.8599 15.5875C17.4274 14.5139 16.7862 13.5367 15.9733 12.7127C15.1605 11.8886 14.1923 11.234 13.1247 10.7868C12.0571 10.3396 10.9113 10.1086 9.75386 10.1073C8.59638 10.106 7.45014 10.3343 6.38154 10.7792C5.31293 11.224 4.3432 11.8764 3.52852 12.6986C2.71383 13.5208 2.07038 14.4965 1.63544 15.5692C1.2005 16.6418 0.982703 17.7901 0.994676 18.9476C0.988861 23.7487 4.88514 27.6892 9.65373 27.7055C14.5607 27.7218 18.4837 23.8429 18.4931 18.9673ZM24.1177 32.1007C24.1229 31.927 24.091 31.7542 24.0243 31.5938C23.9575 31.4333 23.8573 31.2889 23.7304 31.1703C22.2571 29.697 20.7816 28.2192 19.3037 26.7366C19.1118 26.5424 18.9885 26.5633 18.8129 26.7471C18.4035 27.1751 17.9894 27.5985 17.5556 28.0009C17.323 28.2172 17.3486 28.358 17.5638 28.5708C18.8757 29.8653 20.1737 31.1714 21.4775 32.4741C21.6671 32.6636 21.8473 32.8648 22.059 33.0358C22.2376 33.1996 22.4621 33.3049 22.7022 33.3373C22.9424 33.3697 23.1867 33.3278 23.4024 33.2173C23.8653 32.9916 24.0956 32.609 24.1177 32.1007ZM27.6569 1.8202C27.6569 3.11121 27.6464 4.40571 27.6627 5.7002C27.6627 6.08518 27.9837 6.34687 28.4198 6.35036C29.6608 6.3585 30.9007 6.35036 32.1417 6.35036C32.1568 6.35036 32.1731 6.32477 32.1626 6.33291L27.6569 1.8202ZM17.8045 26.304L17.0392 25.5189L16.3251 26.2167L17.052 27.0542L17.8045 26.304Z" fill="black"/>
<path d="M15.9686 7.36103H11.2093C10.3277 7.36103 9.91363 6.9493 9.9113 6.07351C9.9113 5.52571 9.90433 4.9779 9.9113 4.43126C9.9241 3.69155 10.3475 3.26819 11.0895 3.26819C14.3523 3.26819 17.6143 3.26819 20.8756 3.26819C21.6153 3.26819 22.0386 3.68922 22.0537 4.43126C22.0631 5.01279 22.0619 5.59433 22.0537 6.17586C22.0444 6.93069 21.6164 7.35987 20.8604 7.36335C19.231 7.36568 17.6004 7.36103 15.9686 7.36103ZM10.9162 4.28936C10.9162 4.82554 10.9162 5.32682 10.9162 5.82694C10.9162 6.42243 10.8639 6.35381 11.4279 6.35497H20.2068C21.05 6.35497 21.05 6.35497 21.05 5.51989V4.28936H10.9162Z" fill="black"/>
<path d="M25.8849 16.0957H30.0719C30.4906 16.0957 30.7291 16.2806 30.7291 16.5958C30.7291 16.911 30.4872 17.1006 30.0708 17.1006C27.2794 17.1006 24.4857 17.1006 21.6897 17.1006C21.2756 17.1006 21.0465 16.9064 21.057 16.5784C21.0675 16.2504 21.2826 16.0969 21.6897 16.0957H25.8849Z" fill="black"/>
<path d="M25.8817 20.1281C24.4732 20.1281 23.0647 20.1281 21.6574 20.1281C21.3992 20.1281 21.1922 20.0595 21.091 19.8048C21.0642 19.7367 21.0529 19.6635 21.0577 19.5905C21.0626 19.5175 21.0836 19.4464 21.1192 19.3825C21.1548 19.3186 21.2041 19.2633 21.2635 19.2207C21.323 19.1781 21.3912 19.1491 21.4632 19.136C21.5625 19.121 21.663 19.116 21.7633 19.1209H30.0071C30.1185 19.1146 30.2303 19.1224 30.3397 19.1442C30.4552 19.1705 30.5574 19.2373 30.6279 19.3325C30.6983 19.4277 30.7323 19.545 30.7237 19.6631C30.7152 19.7812 30.6646 19.8924 30.5811 19.9764C30.4976 20.0604 30.3869 20.1118 30.2688 20.1211C30.1686 20.1289 30.068 20.1309 29.9676 20.127L25.8817 20.1281Z" fill="black"/>
<path d="M25.915 13.0671C27.3223 13.0671 28.73 13.0671 30.1381 13.0671C30.3824 13.0671 30.6127 13.1218 30.672 13.3719C30.6928 13.4589 30.6956 13.5494 30.6802 13.6376C30.6648 13.7258 30.6315 13.8099 30.5824 13.8848C30.4413 14.0054 30.2609 14.0699 30.0753 14.0662C29.317 14.086 28.5563 14.0744 27.7969 14.0744C25.808 14.0744 23.8192 14.0744 21.8303 14.0744C21.6966 14.0803 21.5626 14.0698 21.4314 14.043C21.3137 14.0211 21.2093 13.9539 21.1407 13.8557C21.0722 13.7576 21.045 13.6364 21.065 13.5184C21.0653 13.4591 21.0775 13.4004 21.1008 13.3458C21.1241 13.2913 21.1582 13.2419 21.2009 13.2007C21.2436 13.1595 21.2941 13.1273 21.3495 13.106C21.4049 13.0846 21.464 13.0746 21.5233 13.0764C21.9594 13.0636 22.3956 13.0764 22.8306 13.0764L25.915 13.0671Z" fill="black"/>
<path d="M23.7182 23.1579C23.0366 23.1579 22.3539 23.1579 21.6724 23.1579C21.2711 23.1579 21.0571 22.9765 21.0606 22.6566C21.0641 22.3368 21.2839 22.1553 21.6828 22.1542C23.0459 22.1542 24.4095 22.1542 25.7733 22.1542C26.1711 22.1542 26.3886 22.3472 26.3863 22.6648C26.384 22.9823 26.1711 23.1544 25.764 23.1567C25.0825 23.1602 24.3998 23.1579 23.7182 23.1579Z" fill="black"/>
<path d="M4.64037 23.3614C5.39288 22.0821 6.7211 22.146 7.89696 21.8495C7.97256 21.468 7.93535 21.1516 7.60271 20.8678C7.36289 20.636 7.17085 20.3594 7.03746 20.0537C6.85602 19.6827 6.78856 19.2663 6.43033 18.979C6.30472 18.8778 6.27216 18.6138 6.2675 18.4219C6.25006 17.6519 6.25355 16.8797 6.2675 16.1085C6.26467 15.5316 6.4862 14.9761 6.8853 14.5594C7.2844 14.1427 7.82983 13.8975 8.40639 13.8755C9.25427 13.8371 10.1056 13.8545 10.9547 13.865C11.5129 13.865 11.8968 14.1499 12.1177 14.6675C12.1699 14.7705 12.2556 14.8526 12.3608 14.9001C12.8889 15.1246 13.175 15.5084 13.1854 16.0853C13.1936 16.868 13.1854 17.6508 13.1924 18.4324C13.1996 18.5894 13.1669 18.7456 13.0973 18.8866C13.0278 19.0275 12.9236 19.1486 12.7946 19.2384C12.7099 19.3031 12.648 19.3931 12.6179 19.4954C12.4502 20.1125 12.1158 20.6714 11.6514 21.1109C11.4967 21.2668 11.4967 21.5761 11.4187 21.825C12.7121 22.1274 14.0729 22.0693 14.8254 23.3894C15.4044 22.7413 15.8449 21.9818 16.1199 21.1574C16.4262 20.2771 16.5468 19.3429 16.4741 18.4137C16.4013 17.4844 16.1368 16.5803 15.6972 15.7584C15.2576 14.9365 14.6524 14.2147 13.9198 13.6384C13.1873 13.0621 12.3432 12.6438 11.4409 12.41C10.5386 12.1762 9.59769 12.1319 8.67743 12.28C7.75718 12.428 6.87759 12.7652 6.09415 13.2702C5.31071 13.7751 4.64043 14.437 4.12557 15.214C3.61072 15.991 3.26247 16.8662 3.10279 17.7845C3.10279 17.8171 3.09349 17.8508 3.08651 17.8834C3.00975 18.2184 2.78295 18.4033 2.50497 18.3568C2.227 18.3102 2.04905 18.0823 2.0979 17.7345C2.22953 16.8126 2.53796 15.9249 3.00626 15.1199C4.5985 12.3379 7.81206 10.7794 10.893 11.2911C14.245 11.8471 16.7665 14.2965 17.376 17.588C18.1808 21.9413 15.1115 26.104 10.6988 26.6436C8.74833 26.8903 6.77712 26.385 5.1858 25.2305C3.59448 24.076 2.50244 22.3589 2.13163 20.4282C2.05719 20.0502 2.19909 19.7792 2.50149 19.7222C2.80388 19.6652 3.03533 19.8385 3.11442 20.2281C3.3416 21.3876 3.8676 22.4677 4.64037 23.3614V23.3614ZM9.77648 25.7039C11.1434 25.7017 12.4768 25.2807 13.5972 24.4978C14.0915 24.1547 14.1031 23.8627 13.6158 23.4801C13.4584 23.3561 13.2776 23.2651 13.0843 23.2126C12.6109 23.0893 12.1294 22.9916 11.6479 22.9044C11.5409 22.9009 11.4364 22.9374 11.3548 23.0067C10.308 23.8209 9.10539 23.8267 8.05747 23.0265C7.97622 22.9585 7.87255 22.9232 7.7667 22.9276C7.22854 23.0163 6.69727 23.1426 6.17678 23.3056C5.93021 23.3929 5.729 23.6476 5.54175 23.8569C5.39288 24.0256 5.45219 24.1814 5.64642 24.3221C6.83467 25.2225 8.28564 25.708 9.77648 25.7039V25.7039ZM7.26658 18.3672C7.64923 18.4905 7.77949 18.7801 7.79927 19.143C7.80508 19.2097 7.81795 19.2756 7.83765 19.3396C7.95296 19.7701 8.21178 20.1485 8.57131 20.412C8.93084 20.6755 9.36954 20.8084 9.81487 20.7887C10.2593 20.7704 10.6838 20.5995 11.017 20.3048C11.3502 20.0102 11.5718 19.6097 11.6444 19.1709C11.7039 18.8744 11.8458 18.6007 12.0538 18.3812C12.2306 18.166 12.1189 17.7124 12.1305 17.3635C12.1305 17.353 12.0735 17.3321 12.0421 17.3286C11.5316 17.2833 11.0024 17.1762 10.536 17.4624C9.87767 17.8648 9.16936 17.9753 8.41802 17.9497C8.04351 17.9369 7.66784 17.9497 7.29798 17.9497C7.28743 17.9969 7.27928 18.0447 7.27356 18.0927C7.26542 18.1683 7.26658 18.2463 7.26658 18.3672ZM12.1387 16.3132C12.1922 15.9434 12.1678 15.8666 11.927 15.8387C11.4827 15.7875 11.2606 15.5421 11.1698 15.1165C11.1465 15.0558 11.1085 15.0019 11.0592 14.9597C11.0098 14.9175 10.9507 14.8882 10.8872 14.8745C10.051 14.8594 9.21239 14.8489 8.37615 14.885C8.09382 14.9051 7.82795 15.0253 7.62643 15.224C7.42491 15.4228 7.30101 15.687 7.27705 15.969C7.24913 16.2772 7.27705 16.5901 7.27705 16.9413C7.74228 16.9413 8.18541 16.9332 8.62853 16.9413C9.10928 16.9615 9.58581 16.8441 10.0021 16.6029C10.4717 16.3373 11.0126 16.2254 11.549 16.283C11.7467 16.2958 11.9444 16.3028 12.1387 16.3132ZM8.95536 21.7611C8.92755 21.9022 8.9116 22.0453 8.90767 22.1891C8.90808 22.2379 8.91875 22.2862 8.93898 22.3307C8.95922 22.3751 8.98857 22.4149 9.02514 22.4473C9.23834 22.5593 9.47608 22.6165 9.7169 22.6136C9.95772 22.6108 10.194 22.548 10.4045 22.431C10.4344 22.4127 10.4597 22.388 10.4786 22.3586C10.4975 22.3292 10.5096 22.2959 10.5139 22.2612C10.5013 22.0947 10.4804 21.9289 10.4511 21.7646L8.95536 21.7611Z" fill="black"/>
</g>
<defs>
<clipPath id="clip0_4484_14461">
<rect width="34" height="34.3431" fill="white"/>
</clipPath>
</defs>
</svg>
